<svg xmlns="http://www.w3.org/2000/svg" width="36" height="23" viewBox="0 0 36 23">
  <path fill="#525252" d="M32.4444362,3.18403712 L23.4425151,3.18403712 L23.4425151,0.948027842 L32.4451879,0.948027842 L32.4451879,3.18403712 L32.4444362,3.18403712 Z M17.4497262,12.3531787 C18.0305708,13.2528445 18.320826,14.3452065 18.320826,15.6276752 C18.320826,16.9539118 17.9935684,18.1436659 17.3277773,19.1945986 C16.9042135,19.8900418 16.3783295,20.4774849 15.7464501,20.950413 C15.0348028,21.4973457 14.1922691,21.8723805 13.2236937,22.072761 C12.2520278,22.2734756 11.2003434,22.374877 10.067471,22.374877 L0,22.374877 L0,0.0206310905 L10.7958237,0.0206310905 C13.5170394,0.064900232 15.4462552,0.853308585 16.5854756,2.40164269 C17.269058,3.35125754 17.6077587,4.49072854 17.6077587,5.81521114 C17.6077587,7.18187471 17.2649652,8.27540603 16.5747007,9.10624594 C16.1907285,9.57207425 15.6234988,9.9958051 14.872594,10.3782738 C16.0099768,10.7946543 16.8729745,11.4503387 17.4497262,12.3531787 Z M5.15543387,8.8337819 L9.88571694,8.8337819 C10.8578005,8.8337819 11.6436195,8.64902088 12.2488538,8.27966589 C12.8536705,7.91089559 13.1554524,7.25537819 13.1554524,6.31419954 C13.1554524,5.27437587 12.7558608,4.5841949 11.9547564,4.25200928 C11.2661624,4.02122506 10.385123,3.90236659 9.31606497,3.90236659 L5.15543387,3.90236659 L5.15543387,8.8337819 Z M13.6109234,15.3083527 C13.6109234,14.1471647 13.1363248,13.3443898 12.1890487,12.9136427 C11.6593225,12.668826 10.9119258,12.543703 9.95362413,12.5347657 L5.15543387,12.5347657 L5.15543387,18.4920557 L9.87936891,18.4920557 C10.8498654,18.4920557 11.6010209,18.3650116 12.143109,18.0999814 C13.1207053,17.6126868 13.6109234,16.68529 13.6109234,15.3083527 Z M35.7844176,11.6716845 C35.8931694,12.4030441 35.9423666,13.4641671 35.9224037,14.8511276 L24.2639165,14.8511276 C24.328232,16.4603527 24.883768,17.5857077 25.9373735,18.2296984 C26.572761,18.6335499 27.3431276,18.8307564 28.2452158,18.8307564 C29.1964176,18.8307564 29.9717123,18.5902831 30.5685104,18.0959722 C30.8936798,17.833949 31.1805104,17.4640928 31.4285012,16.9974292 L35.7017262,16.9974292 C35.5898005,17.9478794 35.0752761,18.9118608 34.1506357,19.8914617 C32.7180696,21.4484826 30.7089188,22.2292065 28.1286125,22.2292065 C25.9970116,22.2292065 24.118413,21.5707657 22.4878051,20.258645 C20.8626265,18.9419304 20.0464037,16.8064872 20.0464037,13.8442135 C20.0464037,11.0663666 20.7791833,8.9401949 22.2496705,7.46026914 C23.725587,5.97758701 25.6303295,5.23962877 27.978181,5.23962877 C29.369819,5.23962877 30.6243063,5.48837123 31.7434803,5.98844548 C32.8591462,6.48902088 33.7811972,7.27684455 34.5073782,8.35960093 C35.1645661,9.31314153 35.5872111,10.4156937 35.7844176,11.6716845 Z M31.5782645,12.0888167 C31.4999165,10.9760742 31.1283898,10.1338747 30.4594246,9.55829234 C29.7959722,8.98112297 28.9671369,8.69136891 27.978181,8.69136891 C26.9018561,8.69136891 26.0707657,9.00108585 25.480232,9.60982831 C24.8856891,10.2173179 24.5157494,11.0432297 24.3641485,12.0889002 L31.5782645,12.0889002 L31.5782645,12.0888167 Z"/>
</svg>
