<svg xmlns="http://www.w3.org/2000/svg" width="200" height="200" viewBox="0 0 200 200">
  <defs>
    <style>
      .cls-1 {
        fill: #192dfb;
        fill-rule: evenodd;
      }
    </style>
  </defs>
  <path id="CONTACT_CONTACT_CONTACT" data-name="CONTACT    CONTACT    CONTACT" class="cls-1" d="M100.072,174.712a8.943,8.943,0,0,0-7.122,3.242l2.49,2.434a6.317,6.317,0,0,1,4.566-2.125,5.2,5.2,0,0,1,5.164,5.415v0.05a5.184,5.184,0,0,1-4.984,5.532,6.455,6.455,0,0,1-4.507-1.9l-2.4,2.865a9.029,9.029,0,0,0,6.942,2.586,8.894,8.894,0,0,0,8.974-9.2v-0.05A8.832,8.832,0,0,0,100.072,174.712Zm-17.99-2.173A9.05,9.05,0,0,0,70.862,179.1l-0.012.048a9.305,9.305,0,0,0,18.074,4.4l0.012-.049A8.966,8.966,0,0,0,82.082,172.539Zm-0.9,3.435a5.318,5.318,0,0,1,3.831,6.609L85,182.632a5.235,5.235,0,0,1-6.4,4.036,5.318,5.318,0,0,1-3.831-6.609l0.012-.049A5.234,5.234,0,0,1,81.185,175.974ZM69.772,169.1l-3.305-1.876L60.974,176.9,59.1,163.039l-2.849-1.617-8.641,15.221,3.305,1.876,5.32-9.372,1.812,13.421,3.088,1.753ZM49.98,155.921l-2.8-2.638L37.615,163.44l-3.877-3.65L31.3,162.375l10.558,9.939,2.433-2.585-3.877-3.65Zm-6.359-5.6L41.384,147.1l-4.137.923-4.218-6.079,2.312-3.552-2.295-3.307-10.2,16.209,2.024,2.917Zm-9.951-1.493-5.988,1.325,3.337-5.145Zm-3.823-23.082a8.945,8.945,0,0,0-5.489-5.58l-1.434,3.174a6.319,6.319,0,0,1,3.563,3.561,5.2,5.2,0,0,1-3.318,6.71l-0.047.018a5.186,5.186,0,0,1-6.908-2.787,6.458,6.458,0,0,1,.241-4.886l-3.516-1.276a9.031,9.031,0,0,0-.049,7.411,8.9,8.9,0,0,0,11.721,5.279l0.047-.018A8.836,8.836,0,0,0,29.848,125.747Zm-3.916-13.732L25.417,108.2,11.59,110.064l-0.712-5.278-3.519.474L9.3,119.633l3.519-.475L12.1,113.88ZM34.785,63.52a8.946,8.946,0,0,0,.667-7.8l-3.343.977a6.317,6.317,0,0,1-.387,5.022,5.2,5.2,0,0,1-7.253,1.845l-0.044-.024a5.185,5.185,0,0,1-2.377-7.058,6.459,6.459,0,0,1,3.867-3l-1.318-3.5a9.03,9.03,0,0,0-5.66,4.783,8.9,8.9,0,0,0,3.615,12.334L22.6,67.129A8.834,8.834,0,0,0,34.785,63.52ZM45.5,48.9a9.05,9.05,0,0,0-.221-12.993l-0.036-.034a8.967,8.967,0,0,0-12.91.607,9.05,9.05,0,0,0,.221,12.993l0.036,0.034A8.967,8.967,0,0,0,45.5,48.9Zm-2.555-2.465a5.317,5.317,0,0,1-7.638.1l-0.037-.034a5.234,5.234,0,0,1-.383-7.558,5.317,5.317,0,0,1,7.638-.1l0.036,0.034A5.234,5.234,0,0,1,42.949,46.439Zm11.584-6.595,3.249-1.969-5.765-9.513,13.012,5.121,2.8-1.7L58.762,16.822l-3.249,1.969L61.1,28,48.5,23.04l-3.036,1.84ZM75.694,29l3.673-1.151L75.195,14.541l5.08-1.593L79.213,9.562,65.381,13.9l1.062,3.387,5.08-1.593Zm7.994-2.807,3.907-.366,1.226-4.057,7.367-.691,1.959,3.758,4.007-.376L93.043,7.616l-3.534.332Zm6.185-7.936,1.785-5.866L94.5,17.823Zm21.984,7.973a8.943,8.943,0,0,0,7.547-2.063l-2.069-2.8a6.314,6.314,0,0,1-4.845,1.368,5.2,5.2,0,0,1-4.232-6.17l0.007-.049a5.183,5.183,0,0,1,5.8-4.664,6.457,6.457,0,0,1,4.144,2.6L121.041,12A9.027,9.027,0,0,0,114.6,8.344a8.893,8.893,0,0,0-10.327,7.645l-0.007.049A8.831,8.831,0,0,0,111.857,26.23Zm13.908,3.285,3.581,1.415,5.126-12.976,4.953,1.957,1.3-3.3L127.242,11.28l-1.305,3.3,4.953,1.957Zm37.954,31.463a8.947,8.947,0,0,0,6.48,4.388l0.78-3.394a6.316,6.316,0,0,1-4.194-2.788,5.2,5.2,0,0,1,1.929-7.231l0.042-.027a5.186,5.186,0,0,1,7.321,1.37,6.463,6.463,0,0,1,.727,4.837l3.7,0.557a9.034,9.034,0,0,0-1.413-7.274,8.9,8.9,0,0,0-12.529-2.864l-0.043.027A8.834,8.834,0,0,0,163.719,60.978Zm7.532,16.513a9.051,9.051,0,0,0,11.439,6.173l0.048-.015a9.307,9.307,0,0,0-5.645-17.729l-0.047.015A8.968,8.968,0,0,0,171.251,77.492Zm3.4-1.02A5.318,5.318,0,0,1,178.3,69.76l0.048-.015a5.235,5.235,0,0,1,6.779,3.368,5.318,5.318,0,0,1-3.652,6.711l-0.048.015A5.235,5.235,0,0,1,174.652,76.471Zm0.06,13.311,0.123,3.8,11.122-.36-10.848,8.833,0.106,3.274,17.5-.566-0.123-3.8-10.772.348,10.507-8.546-0.115-3.549Zm-0.905,23.764-0.788,3.77,13.657,2.852-1.088,5.213,3.475,0.726,2.965-14.2-3.476-.725-1.088,5.213Zm-1.451,8.346-1.591,3.589,2.94,3.054-3,6.766-4.237-.128-1.631,3.68,19.154,0.285,1.439-3.245Zm3.9,9.278L180.5,135.6l-6.131-.174Zm-17.734,15.267a8.945,8.945,0,0,0-1.91,7.589l3.456-.427a6.318,6.318,0,0,1,1.188-4.894,5.2,5.2,0,0,1,7.454-.657l0.04,0.03a5.186,5.186,0,0,1,1.214,7.348,6.462,6.462,0,0,1-4.3,2.336l0.74,3.665a9.028,9.028,0,0,0,6.353-3.813,8.893,8.893,0,0,0-1.589-12.752l-0.04-.031A8.833,8.833,0,0,0,158.523,146.437Zm-9.673,10.5-2.984,2.432,8.812,10.813-4.127,3.364,2.242,2.752,11.24-9.16-2.243-2.752-4.127,3.364Z"/>
</svg>
