<svg xmlns="http://www.w3.org/2000/svg" width="36" height="36" viewBox="0 0 36 36">
  <path fill="#525252" d="M0,18 C0,14.735988 0.804024,11.724012 2.412,8.964 C4.020012,6.203988 6.204024,4.020012 8.964,2.412 C11.724012,0.803988 14.736024,0 18,0 C21.264012,0 24.276024,0.803988 27.036,2.412 C29.796012,4.020012 31.980024,6.203988 33.588,8.964 C35.196012,11.724012 36,14.735988 36,18 C36,21.264012 35.196012,24.275988 33.588,27.036 C31.980024,29.796012 29.796012,31.979988 27.036,33.588 C24.276024,35.196012 21.264012,36 18,36 C14.736024,36 11.724012,35.196012 8.964,33.588 C6.204024,31.979988 4.020012,29.796012 2.412,27.036 C0.804024,24.275988 0,21.264012 0,18 Z M2.988,18 C2.988,21.744 4.248,25.044012 6.768,27.9 C7.92,25.643988 9.744012,23.496012 12.24,21.456 C14.736024,19.415988 17.172,18.132012 19.548,17.604 C19.188,16.764012 18.840024,16.008012 18.504,15.336 C14.376024,16.656012 9.912024,17.316 5.112,17.316 C4.176,17.316 3.480012,17.304012 3.024,17.28 C3.024,17.376012 3.018024,17.496 3.006,17.64 C2.994012,17.784 2.988,17.903988 2.988,18 Z M3.456,14.292 C3.984012,14.339988 4.764024,14.364 5.796,14.364 C9.804024,14.364 13.608,13.824 17.208,12.744 C15.384024,9.504 13.380012,6.804 11.196,4.644 C9.300024,5.604012 7.674012,6.936012 6.318,8.64 C4.962024,10.343988 4.008024,12.228012 3.456,14.292 Z M8.82,29.844 C11.532024,31.956012 14.592024,33.012 18,33.012 C19.776024,33.012 21.540024,32.676012 23.292,32.004 C22.812012,27.9 21.876012,23.928012 20.484,20.088 C18.276012,20.567988 16.050024,21.78 13.806,23.724 C11.562012,25.668 9.9,27.708012 8.82,29.844 Z M14.328,3.492 C16.440012,5.676012 18.396,8.399988 20.196,11.664 C23.460012,10.296 25.92,8.556012 27.576,6.444 C24.792012,4.14 21.6,2.988 18,2.988 C16.776,2.988 15.552,3.156012 14.328,3.492 Z M21.492,14.22 C21.852,14.987988 22.260024,15.959988 22.716,17.136 C24.492024,16.967988 26.424,16.884 28.512,16.884 C30.000024,16.884 31.476024,16.92 32.94,16.992 C32.748012,13.727988 31.572,10.824012 29.412,8.28 C27.852012,10.608012 25.212024,12.588012 21.492,14.22 Z M23.616,19.656 C24.84,23.208012 25.668,26.856 26.1,30.6 C27.996012,29.376 29.544012,27.803988 30.744,25.884 C31.944024,23.964012 32.664024,21.888 32.904,19.656 C31.152024,19.536012 29.556,19.476 28.116,19.476 C26.796024,19.476 25.296012,19.536012 23.616,19.656 Z"/>
</svg>
