<svg xmlns="http://www.w3.org/2000/svg" width="36" height="35" viewBox="0 0 36 35">
  <path fill="#525252" d="M35.9262459,21.0940789 L35.9262459,34.3762413 L28.2260882,34.3762413 L28.2260882,21.9836381 C28.2260882,18.8705151 27.1123434,16.7459304 24.3251415,16.7459304 C22.1974664,16.7459304 20.9312854,18.1777448 20.3742459,19.5627842 C20.171109,20.0579304 20.1188213,20.747109 20.1188213,21.4402135 L20.1188213,34.3762413 L12.4160742,34.3762413 C12.4160742,34.3762413 12.5198144,13.387239 12.4160742,11.2126218 L20.1180696,11.2126218 L20.1180696,14.4959722 C20.1024501,14.520529 20.0821531,14.547007 20.0674524,14.5708121 L20.1180696,14.5708121 L20.1180696,14.4959722 C21.141355,12.9199072 22.9688353,10.6684455 27.0593039,10.6684455 C32.1271183,10.6683619 35.9262459,13.979109 35.9262459,21.0940789 Z M4.35867285,0.0466078886 C1.72357309,0.0466078886 0,1.77502552 0,4.0479536 C0,6.27135035 1.67370766,8.05222274 4.25643619,8.05222274 L4.30788863,8.05222274 C6.9940232,8.05222274 8.66455684,6.27168445 8.66455684,4.0479536 C8.61393968,1.77502552 6.9940232,0.0466078886 4.35867285,0.0466078886 Z M0.457475638,34.3762413 L8.1572993,34.3762413 L8.1572993,11.2126218 L0.457475638,11.2126218 L0.457475638,34.3762413 Z"/>
</svg>
