<svg xmlns="http://www.w3.org/2000/svg" width="36" height="30" viewBox="0 0 36 30">
  <path fill="#525252" d="M36,3.46316107 C34.6757571,4.05077595 33.2524233,4.44754156 31.7580232,4.62608608 C33.2823565,3.71181759 34.4540706,2.26447692 35.0053739,0.539751896 C33.5786249,1.386068 31.9978404,2.00110492 30.3155542,2.33217819 C28.9682588,0.896589825 27.0485661,0 24.9243634,0 C20.844709,0 17.5382452,3.30671488 17.5382452,7.3854151 C17.5382452,7.96464266 17.6036864,8.52820049 17.7294963,9.06870574 C11.5911305,8.76068505 6.14891266,5.82035056 2.50625283,1.35196625 C1.87037316,2.44251921 1.5062026,3.71136558 1.5062026,5.06503943 C1.5062026,7.627191 2.81010497,9.88775049 4.79182362,11.2122445 C3.58108583,11.1742253 2.44221787,10.8416955 1.44658731,10.2884838 C1.44588418,10.3193712 1.44588418,10.3502587 1.44588418,10.3816483 C1.44588418,13.9600723 3.99186379,16.9450555 7.37064939,17.623826 C6.7507408,17.792577 6.09813671,17.8828286 5.42474009,17.8828286 C4.94877204,17.8828286 4.48601276,17.8362212 4.03500578,17.7503892 C4.9749887,20.6843453 7.70247602,22.8197981 10.934609,22.8791623 C8.40676008,24.8606298 5.22218874,26.0411833 1.76148862,26.0411833 C1.16533574,26.0411833 0.577720858,26.0063784 0,25.9381749 C3.2686957,28.0339511 7.15067048,29.25619 11.3218322,29.25619 C24.907187,29.25619 32.3362463,18.0020089 32.3362463,8.2417759 C32.3362463,7.92150068 32.3289137,7.60318417 32.3147004,7.28632414 C33.7576214,6.24509065 35.0102456,4.94440259 36,3.46316107 Z"/>
</svg>
